<mxfile host="65bd71144e">
    <diagram id="vwsIQHmzCKzelbVq-6L1" name="Page-1">
        <mxGraphModel dx="914" dy="530" grid="1" gridSize="10" guides="1" tooltips="1" connect="1" arrows="1" fold="1" page="1" pageScale="1" pageWidth="850" pageHeight="1100" math="0" shadow="0">
            <root>
                <mxCell id="0"/>
                <mxCell id="1" parent="0"/>
                <mxCell id="2" value="NBDM_Project" style="swimlane;whiteSpace=wrap;html=1;fillColor=#0050ef;fontColor=#ffffff;strokeColor=#001DBC;" vertex="1" parent="1">
                    <mxGeometry x="110" y="330" width="200" height="90" as="geometry"/>
                </mxCell>
                <mxCell id="3" value="NBDM_Variants" style="rounded=0;whiteSpace=wrap;html=1;fillColor=#1ba1e2;fontColor=#ffffff;strokeColor=#006EAF;" vertex="1" parent="2">
                    <mxGeometry x="10" y="40" width="180" height="40" as="geometry"/>
                </mxCell>
                <mxCell id="5" value="NBDM_Variants" style="swimlane;whiteSpace=wrap;html=1;fillColor=#1ba1e2;fontColor=#ffffff;strokeColor=#006EAF;" vertex="1" parent="1">
                    <mxGeometry x="110" y="440" width="200" height="140" as="geometry"/>
                </mxCell>
                <mxCell id="7" value="NBDM_Variant [baseline]" style="rounded=0;whiteSpace=wrap;html=1;fillColor=#60a917;fontColor=#ffffff;strokeColor=#2D7600;" vertex="1" parent="5">
                    <mxGeometry x="10" y="90" width="180" height="40" as="geometry"/>
                </mxCell>
                <mxCell id="66" style="edgeStyle=orthogonalEdgeStyle;html=1;exitX=0.5;exitY=1;exitDx=0;exitDy=0;entryX=0.5;entryY=0;entryDx=0;entryDy=0;" edge="1" parent="5" source="6" target="7">
                    <mxGeometry relative="1" as="geometry"/>
                </mxCell>
                <mxCell id="6" value="NBDM_Variant [proposed]" style="rounded=0;whiteSpace=wrap;html=1;fillColor=#60a917;fontColor=#ffffff;strokeColor=#2D7600;" vertex="1" parent="5">
                    <mxGeometry x="10" y="40" width="180" height="40" as="geometry"/>
                </mxCell>
                <mxCell id="8" style="edgeStyle=none;html=1;entryX=0.5;entryY=0;entryDx=0;entryDy=0;" edge="1" parent="1" source="3" target="5">
                    <mxGeometry relative="1" as="geometry"/>
                </mxCell>
                <mxCell id="9" value="NBDM_Variant" style="swimlane;whiteSpace=wrap;html=1;fillColor=#60a917;fontColor=#ffffff;strokeColor=#2D7600;" vertex="1" parent="1">
                    <mxGeometry x="380" y="300" width="310" height="100" as="geometry"/>
                </mxCell>
                <mxCell id="11" value="NBDM_Building" style="rounded=0;whiteSpace=wrap;html=1;fillColor=#008a00;fontColor=#ffffff;strokeColor=#005700;" vertex="1" parent="9">
                    <mxGeometry x="10" y="40" width="290" height="40" as="geometry"/>
                </mxCell>
                <mxCell id="12" style="edgeStyle=orthogonalEdgeStyle;html=1;entryX=0.002;entryY=0.11;entryDx=0;entryDy=0;entryPerimeter=0;" edge="1" parent="1" source="6" target="9">
                    <mxGeometry relative="1" as="geometry"/>
                </mxCell>
                <mxCell id="13" value="NBDM_BuildingSegment" style="swimlane;whiteSpace=wrap;html=1;fillColor=#fa6800;fontColor=#000000;strokeColor=#C73500;" vertex="1" parent="1">
                    <mxGeometry x="380" y="550" width="310" height="200" as="geometry"/>
                </mxCell>
                <mxCell id="14" value="NBDM_BuildingSegmentGeometry" style="rounded=0;whiteSpace=wrap;html=1;fillColor=#6d8764;fontColor=#ffffff;strokeColor=#3A5431;" vertex="1" parent="13">
                    <mxGeometry x="10" y="40" width="290" height="40" as="geometry"/>
                </mxCell>
                <mxCell id="59" value="NBDM_BuildingSegmentPerformance" style="rounded=0;whiteSpace=wrap;html=1;fillColor=#f0a30a;fontColor=#000000;strokeColor=#BD7000;" vertex="1" parent="13">
                    <mxGeometry x="10" y="140" width="290" height="40" as="geometry"/>
                </mxCell>
                <mxCell id="15" value="NBDM_Building" style="swimlane;whiteSpace=wrap;html=1;fillColor=#008a00;fontColor=#ffffff;strokeColor=#005700;" vertex="1" parent="1">
                    <mxGeometry x="380" y="420" width="310" height="100" as="geometry"/>
                </mxCell>
                <mxCell id="16" value="Collection: NBDM_BuildingSegment" style="rounded=0;whiteSpace=wrap;html=1;fillColor=#fa6800;fontColor=#000000;strokeColor=#C73500;" vertex="1" parent="15">
                    <mxGeometry x="10" y="40" width="290" height="40" as="geometry"/>
                </mxCell>
                <mxCell id="17" style="edgeStyle=orthogonalEdgeStyle;html=1;" edge="1" parent="1" source="11" target="15">
                    <mxGeometry relative="1" as="geometry"/>
                </mxCell>
                <mxCell id="18" style="edgeStyle=orthogonalEdgeStyle;html=1;entryX=0.5;entryY=0;entryDx=0;entryDy=0;" edge="1" parent="1" source="16" target="13">
                    <mxGeometry relative="1" as="geometry"/>
                </mxCell>
                <mxCell id="19" value="NBDM_BuildingSegmentGeometry" style="swimlane;whiteSpace=wrap;html=1;fillColor=#6d8764;fontColor=#ffffff;strokeColor=#3A5431;" vertex="1" parent="1">
                    <mxGeometry x="780" y="150" width="280" height="90" as="geometry"/>
                </mxCell>
                <mxCell id="25" value="area_envelope&lt;br&gt;area_floor_area_net_interior_weighted&lt;br&gt;volume_net_interior" style="text;html=1;align=left;verticalAlign=middle;resizable=0;points=[];autosize=1;strokeColor=none;fillColor=none;" vertex="1" parent="19">
                    <mxGeometry x="10" y="30" width="230" height="60" as="geometry"/>
                </mxCell>
                <mxCell id="21" value="NBDM_BuildingSegmentOccupancy" style="swimlane;whiteSpace=wrap;html=1;fillColor=#647687;fontColor=#ffffff;strokeColor=#314354;" vertex="1" parent="1">
                    <mxGeometry x="780" y="260" width="280" height="90" as="geometry"/>
                </mxCell>
                <mxCell id="26" value="total_dwelling_units&lt;br&gt;total_occupants" style="text;html=1;align=left;verticalAlign=middle;resizable=0;points=[];autosize=1;strokeColor=none;fillColor=none;" vertex="1" parent="21">
                    <mxGeometry x="10" y="40" width="130" height="40" as="geometry"/>
                </mxCell>
                <mxCell id="23" value="NBDM_BuildingSegmentPerformance" style="swimlane;whiteSpace=wrap;html=1;fillColor=#f0a30a;fontColor=#000000;strokeColor=#BD7000;" vertex="1" parent="1">
                    <mxGeometry x="780" y="360" width="280" height="340" as="geometry"/>
                </mxCell>
                <mxCell id="27" value="NBDM_SiteEnergy" style="rounded=0;whiteSpace=wrap;html=1;fillColor=#e3c800;fontColor=#000000;strokeColor=#B09500;" vertex="1" parent="23">
                    <mxGeometry x="10" y="40" width="260" height="40" as="geometry"/>
                </mxCell>
                <mxCell id="28" value="NBDM_SourceEnergy" style="rounded=0;whiteSpace=wrap;html=1;fillColor=#e3c800;fontColor=#000000;strokeColor=#B09500;" vertex="1" parent="23">
                    <mxGeometry x="10" y="90" width="260" height="40" as="geometry"/>
                </mxCell>
                <mxCell id="29" value="NBDM_AnnualHeatingDemandEnergy" style="rounded=0;whiteSpace=wrap;html=1;fillColor=#e3c800;fontColor=#000000;strokeColor=#B09500;" vertex="1" parent="23">
                    <mxGeometry x="10" y="140" width="260" height="40" as="geometry"/>
                </mxCell>
                <mxCell id="30" value="NBDM_AnnualCoolingDemandEnergy" style="rounded=0;whiteSpace=wrap;html=1;fillColor=#e3c800;fontColor=#000000;strokeColor=#B09500;" vertex="1" parent="23">
                    <mxGeometry x="10" y="190" width="260" height="40" as="geometry"/>
                </mxCell>
                <mxCell id="31" value="NBDM_PeakHeatingLoad" style="rounded=0;whiteSpace=wrap;html=1;fillColor=#e3c800;fontColor=#000000;strokeColor=#B09500;" vertex="1" parent="23">
                    <mxGeometry x="10" y="240" width="260" height="40" as="geometry"/>
                </mxCell>
                <mxCell id="32" value="NBDM_PeakCoolingLoad" style="rounded=0;whiteSpace=wrap;html=1;fillColor=#e3c800;fontColor=#000000;strokeColor=#B09500;" vertex="1" parent="23">
                    <mxGeometry x="10" y="290" width="260" height="40" as="geometry"/>
                </mxCell>
                <mxCell id="33" value="NBDM_SiteEnergy" style="swimlane;whiteSpace=wrap;html=1;fillColor=#e3c800;fontColor=#000000;strokeColor=#B09500;" vertex="1" parent="1">
                    <mxGeometry x="1200" y="140" width="240" height="90" as="geometry"/>
                </mxCell>
                <mxCell id="34" value="consumption (by fuel)&lt;br&gt;production (by fuel)" style="text;html=1;align=left;verticalAlign=middle;resizable=0;points=[];autosize=1;strokeColor=none;fillColor=none;" vertex="1" parent="33">
                    <mxGeometry x="10" y="40" width="140" height="40" as="geometry"/>
                </mxCell>
                <mxCell id="36" value="NBDM_SourceEnergy" style="swimlane;whiteSpace=wrap;html=1;fillColor=#e3c800;fontColor=#000000;strokeColor=#B09500;" vertex="1" parent="1">
                    <mxGeometry x="1200" y="250" width="240" height="90" as="geometry"/>
                </mxCell>
                <mxCell id="37" value="consumption (by fuel)&lt;br&gt;production (by fuel)" style="text;html=1;align=left;verticalAlign=middle;resizable=0;points=[];autosize=1;strokeColor=none;fillColor=none;" vertex="1" parent="36">
                    <mxGeometry x="10" y="40" width="140" height="40" as="geometry"/>
                </mxCell>
                <mxCell id="39" value="NBDM_AnnualHeatingDemandEnergy" style="swimlane;whiteSpace=wrap;html=1;fillColor=#e3c800;fontColor=#000000;strokeColor=#B09500;" vertex="1" parent="1">
                    <mxGeometry x="1200" y="360" width="240" height="90" as="geometry"/>
                </mxCell>
                <mxCell id="40" value="heat gains&lt;br&gt;heat losses&lt;br&gt;annual demand" style="text;html=1;align=left;verticalAlign=middle;resizable=0;points=[];autosize=1;strokeColor=none;fillColor=none;" vertex="1" parent="39">
                    <mxGeometry x="10" y="30" width="110" height="60" as="geometry"/>
                </mxCell>
                <mxCell id="42" value="NBDM_AnnualCoolingDemandEnergy" style="swimlane;whiteSpace=wrap;html=1;fillColor=#e3c800;fontColor=#000000;strokeColor=#B09500;" vertex="1" parent="1">
                    <mxGeometry x="1200" y="460" width="240" height="90" as="geometry"/>
                </mxCell>
                <mxCell id="43" value="heat gains&lt;br&gt;heat losses&lt;br&gt;annual demand" style="text;html=1;align=left;verticalAlign=middle;resizable=0;points=[];autosize=1;strokeColor=none;fillColor=none;" vertex="1" parent="42">
                    <mxGeometry x="10" y="30" width="110" height="60" as="geometry"/>
                </mxCell>
                <mxCell id="45" value="NBDM_PeakHeatingLoad" style="swimlane;whiteSpace=wrap;html=1;fillColor=#e3c800;fontColor=#000000;strokeColor=#B09500;" vertex="1" parent="1">
                    <mxGeometry x="1200" y="560" width="240" height="90" as="geometry"/>
                </mxCell>
                <mxCell id="46" value="heat gains&lt;br&gt;heat losses&lt;br&gt;peak load" style="text;html=1;align=left;verticalAlign=middle;resizable=0;points=[];autosize=1;strokeColor=none;fillColor=none;" vertex="1" parent="45">
                    <mxGeometry x="10" y="30" width="80" height="60" as="geometry"/>
                </mxCell>
                <mxCell id="48" value="NBDM_PeakCoolingLoad" style="swimlane;whiteSpace=wrap;html=1;fillColor=#e3c800;fontColor=#000000;strokeColor=#B09500;" vertex="1" parent="1">
                    <mxGeometry x="1200" y="660" width="240" height="90" as="geometry"/>
                </mxCell>
                <mxCell id="49" value="heat gains&lt;br&gt;heat losses&lt;br&gt;peak load" style="text;html=1;align=left;verticalAlign=middle;resizable=0;points=[];autosize=1;strokeColor=none;fillColor=none;" vertex="1" parent="48">
                    <mxGeometry x="10" y="30" width="80" height="60" as="geometry"/>
                </mxCell>
                <mxCell id="51" style="edgeStyle=orthogonalEdgeStyle;html=1;entryX=0;entryY=0.25;entryDx=0;entryDy=0;" edge="1" parent="1" source="32" target="48">
                    <mxGeometry relative="1" as="geometry"/>
                </mxCell>
                <mxCell id="52" style="edgeStyle=orthogonalEdgeStyle;html=1;entryX=0;entryY=0.25;entryDx=0;entryDy=0;" edge="1" parent="1" source="31" target="45">
                    <mxGeometry relative="1" as="geometry"/>
                </mxCell>
                <mxCell id="53" style="edgeStyle=orthogonalEdgeStyle;html=1;entryX=0;entryY=0.25;entryDx=0;entryDy=0;" edge="1" parent="1" source="30" target="42">
                    <mxGeometry relative="1" as="geometry">
                        <Array as="points">
                            <mxPoint x="1170" y="570"/>
                            <mxPoint x="1170" y="482"/>
                        </Array>
                    </mxGeometry>
                </mxCell>
                <mxCell id="54" style="edgeStyle=orthogonalEdgeStyle;html=1;entryX=0;entryY=0.25;entryDx=0;entryDy=0;" edge="1" parent="1" source="29" target="39">
                    <mxGeometry relative="1" as="geometry">
                        <Array as="points">
                            <mxPoint x="1150" y="520"/>
                            <mxPoint x="1150" y="382"/>
                        </Array>
                    </mxGeometry>
                </mxCell>
                <mxCell id="55" style="edgeStyle=orthogonalEdgeStyle;html=1;entryX=0;entryY=0.25;entryDx=0;entryDy=0;" edge="1" parent="1" source="28" target="36">
                    <mxGeometry relative="1" as="geometry"/>
                </mxCell>
                <mxCell id="56" style="edgeStyle=orthogonalEdgeStyle;html=1;entryX=0;entryY=0.25;entryDx=0;entryDy=0;" edge="1" parent="1" source="27" target="33">
                    <mxGeometry relative="1" as="geometry">
                        <Array as="points">
                            <mxPoint x="1100" y="420"/>
                            <mxPoint x="1100" y="162"/>
                        </Array>
                    </mxGeometry>
                </mxCell>
                <mxCell id="61" style="edgeStyle=orthogonalEdgeStyle;html=1;entryX=0;entryY=0.25;entryDx=0;entryDy=0;" edge="1" parent="1" source="57" target="21">
                    <mxGeometry relative="1" as="geometry">
                        <Array as="points">
                            <mxPoint x="740" y="660"/>
                            <mxPoint x="740" y="283"/>
                        </Array>
                    </mxGeometry>
                </mxCell>
                <mxCell id="57" value="NBDM_BuildingSegmentOccupancy" style="rounded=0;whiteSpace=wrap;html=1;fillColor=#647687;fontColor=#ffffff;strokeColor=#314354;" vertex="1" parent="1">
                    <mxGeometry x="390" y="640" width="290" height="40" as="geometry"/>
                </mxCell>
                <mxCell id="62" style="edgeStyle=orthogonalEdgeStyle;html=1;entryX=0;entryY=0.25;entryDx=0;entryDy=0;" edge="1" parent="1" source="14" target="19">
                    <mxGeometry relative="1" as="geometry">
                        <Array as="points">
                            <mxPoint x="720" y="610"/>
                            <mxPoint x="720" y="173"/>
                        </Array>
                    </mxGeometry>
                </mxCell>
                <mxCell id="63" style="edgeStyle=orthogonalEdgeStyle;html=1;entryX=-0.004;entryY=0.064;entryDx=0;entryDy=0;entryPerimeter=0;" edge="1" parent="1" source="59" target="23">
                    <mxGeometry relative="1" as="geometry">
                        <Array as="points">
                            <mxPoint x="760" y="710"/>
                            <mxPoint x="760" y="382"/>
                        </Array>
                    </mxGeometry>
                </mxCell>
                <mxCell id="64" value="NBDM_Variant" style="swimlane;whiteSpace=wrap;html=1;fillColor=#60a917;fontColor=#ffffff;strokeColor=#2D7600;" vertex="1" parent="1">
                    <mxGeometry x="380" y="790" width="310" height="70" as="geometry"/>
                </mxCell>
                <mxCell id="65" value=". . ." style="rounded=0;whiteSpace=wrap;html=1;fillColor=none;strokeColor=none;" vertex="1" parent="64">
                    <mxGeometry x="10" y="40" width="290" height="20" as="geometry"/>
                </mxCell>
                <mxCell id="67" style="edgeStyle=orthogonalEdgeStyle;html=1;entryX=0;entryY=0.25;entryDx=0;entryDy=0;" edge="1" parent="1" source="7" target="64">
                    <mxGeometry relative="1" as="geometry"/>
                </mxCell>
            </root>
        </mxGraphModel>
    </diagram>
</mxfile>